<?xml version="1.0" encoding="UTF-8"?><svg id="Layer_1" xmlns="http://www.w3.org/2000/svg" viewBox="0 0 759.25 176.98"><defs><style>.cls-1{opacity:.53;}.cls-1,.cls-2,.cls-3{stroke-width:0px;}.cls-2{opacity:.27;}</style></defs><rect class="cls-3" x="12.55" width="36.7" height="23.74"/><path class="cls-3" d="m234.29,37.6c-10.79,0-20.62,5.01-28.04,13.23v-12.09h-36.69v137.18h36.69v-48.41c7.42,8.22,17.25,13.23,28.04,13.23,23.16,0,41.93-23.09,41.93-51.57s-18.77-51.57-41.93-51.57Zm-12.93,76.75c-6.5,0-12.16-5.4-15.11-13.38-1.38-3.74-2.17-8.04-2.17-12.62s.79-8.88,2.17-12.62c2.95-7.98,8.61-13.38,15.11-13.38,9.54,0,17.28,11.64,17.28,26s-7.74,26-17.28,26Z"/><rect class="cls-3" x="502.55" width="36.7" height="23.74"/><path class="cls-3" d="m539.25,139.17V38.74h-36.69v100.43h36.69Z"/><path class="cls-3" d="m49.25,38.74v106.2c0,1.84-.04,3.65-.31,5.48-.61,4.19-1.99,8.28-4.19,11.9-3.06,5.02-7.65,8.87-12.98,11.31-3.42,1.56-6.87,2.64-10.53,2.99-.84.08-1.69.12-2.55.12H0v-25.94c2.59.17,11.12.23,12.56-5.86V38.74h36.69Z"/><path class="cls-3" d="m597.69,62.74v46.2c1.44,6.09,9.97,6.03,12.56,5.86v25.94h-18.69c-.86,0-1.71-.04-2.55-.12-3.66-.35-7.11-1.43-10.53-2.99-5.33-2.44-9.92-6.29-12.98-11.31-2.2-3.62-3.58-7.71-4.19-11.9-.27-1.83-.31-3.64-.31-5.48v-46.2h-15.75v-24h15.75V12.3h36.69v26.44h16.56v24h-16.56Z"/><path class="cls-3" d="m166.25,138.74h-40l-20.73-38.27-10.27,13v24.47h-36.69V.35h36.69v76.39l26-38h40l-29.86,37.82,34.86,62.18Z"/><path class="cls-3" d="m430.25,88.24c0,15.19,6.94,27.5,15.5,27.5,4.82,0,9.12-3.89,11.96-10h37.61c-7.16,20.53-26.65,35.25-49.57,35.25-28.99,0-52.5-23.56-52.5-52.62s23.51-52.63,52.5-52.63c23.56,0,43.5,15.56,50.15,37h-37.35c-2.79-7.24-7.48-12-12.8-12-8.56,0-15.5,12.31-15.5,27.5Z"/><rect class="cls-3" x="722.25" y="101.74" width="37" height="36"/><path class="cls-1" d="m353.83,176.16c-.45.02-.9.03-1.35.03h-.14c-.4,0-.8-.01-1.2-.03h2.69Z"/><path class="cls-1" d="m356.82,175.92c-.52.06-1.04.12-1.57.16v-.16h1.57Z"/><path class="cls-1" d="m387.25,140.96c0,.46-.01.91-.03,1.36v-2.72c.02.45.03.9.03,1.36Z"/><path class="cls-2" d="m355.25,176.08v.08h-1.42c.48-.01.95-.04,1.42-.08Z"/><path class="cls-3" d="m351.14,176.16c.4.02.8.03,1.2.03.5-.01.99-.02,1.49-.03h-2.69Z"/><path class="cls-3" d="m350.53,38.74v12.09c-7.42-8.22-17.25-13.23-28.04-13.23-23.16,0-41.93,23.09-41.93,51.57,0,13.55,4.25,25.88,11.21,35.09,6.63,8.79,15.73,14.73,25.95,16.15.4.06.81.11,1.21.14,1.18.13,2.36.19,3.56.19,7.37,0,14.3-2.34,20.31-6.45,2.79-1.9,5.38-4.18,7.73-6.78,0,3.58-.15,7.19-.02,10.77.07,2.12.05,4.38-.47,6.46-.46,1.86-1.33,3.58-2.88,4.94-3.37,2.94-8.39,4.06-12.74,4.06-8.07,0-14.76-3.91-15.86-9h-36.3c-.01.16-.01.33-.01.5,0,17.67,17.49,30.93,34.26,31.01,11.91.05,23.9.16,35.83-.06-.4,0-.8-.01-1.2-.03h2.69c.48-.01.95-.04,1.42-.08v-.16h1.57c16.72-2.11,29.75-16.24,30.4-33.6V38.74h-36.69Zm0,62.23c-.68,1.83-1.5,3.53-2.44,5.05-3.15,5.12-7.66,8.33-12.67,8.33-1.59,0-3.13-.32-4.6-.94-7.31-3.02-12.68-13.1-12.68-25.06,0-14.36,7.74-26,17.28-26,6.5,0,12.16,5.4,15.11,13.38,1.38,3.74,2.17,8.04,2.17,12.62s-.79,8.88-2.17,12.62Z"/><path class="cls-3" d="m726.25,38.74l-24,71c-3.36,9.67-6.23,19.5-9.35,29.24-.96,3.01-1.91,6.08-2.96,9.12-.21.6-.42,1.19-.63,1.77-2.1,5.75-4.68,11.31-8.62,16-6.21,7.39-15.96,10.2-25.24,11.03-2.07.18-25.54,0-25.54-.16v-26c0,.44,13.34.38,14.64.14,5.52-.98,9.81-5.83,8.88-11.59-.59-3.62-2.57-7.11-3.73-10.59-.74-2.23-1.51-4.44-2.25-6.66l-4.16-12.3h-.04l-24-71h37.82l8.22,33.63,8.21,33.63,8.22-33.63,8.22-33.63h36.31Z"/></svg>